<?xml version="1.0" encoding="utf-8"?>
<!-- Generator: Adobe Illustrator 23.1.0, SVG Export Plug-In . SVG Version: 6.00 Build 0)  -->
<svg version="1.1" id="Capa_1" xmlns="http://www.w3.org/2000/svg" xmlns:xlink="http://www.w3.org/1999/xlink" x="0px" y="0px"
	 viewBox="0 0 17 30" style="enable-background:new 0 0 17 30;" xml:space="preserve">
<style type="text/css">
	.st0{fill:#C7C6C1;}
	.st1{fill:#908F8B;}
	.st2{fill:#2F2F2F;}
	.st3{fill:#191919;}
	.st4{fill:#DFDFDF;}
	.st5{fill:#979797;}
</style>
<g>
	<path class="st0" d="M5.9,15.9C5.9,15.9,5.8,15.9,5.9,15.9l-0.5,9.6c0,0,0,0.1,0,0.2l0.8,2.9c0,0,0.1,0.1,0.1,0.1l0.8,0.1
		c0,0,0.1,0,0.1-0.1l1.2-3c0,0,0-0.1,0-0.2L8.8,16c0,0,0-0.1-0.1-0.1L5.9,15.9z"/>
	<path class="st1" d="M7.3,25.2L6.9,25l0-1.1l0.6-0.3l0-0.9L8,22.5l0-2.5l-0.4-0.2l0-2.4l-0.8,0l-0.1,2.5l-0.5,0.2l0,1.1l0.5,0.2
		l0,0.9L6,22.5L6,24.9l0.5,0.3l-0.1,1.5l-0.6,0.6l0.4,1.4c0,0,0.1,0.1,0.1,0.1l0.8,0.1c0,0,0.1,0,0.1-0.1l0.6-1.5l-0.5-0.7L7.3,25.2
		z"/>
	<g>
		<g>
			<g>
				<path class="st2" d="M9.9,7.3C9.1,7.2,7.6,7,5.2,7.1c0,0-0.8,0-1.2,1.3c0,0-1,3.4-0.7,5.1s1.1,2.2,2.2,2.5
					c1,0.3,3.6,0.2,3.6,0.2s2.3-0.4,2.3-2.4S11.3,10,11.1,9S10.7,7.4,9.9,7.3z M9.4,8.9l0,1.1c0,0.2-0.2,0.4-0.4,0.4l-3-0.1
					c-0.2,0-0.4-0.2-0.4-0.4l-0.1-1c0-0.2,0.2-0.4,0.4-0.4L9,8.4C9.3,8.4,9.4,8.6,9.4,8.9z"/>
			</g>
		</g>
		<circle class="st3" cx="7.4" cy="13.4" r="1.7"/>
		<g>
			<circle class="st2" cx="7.4" cy="13.4" r="1.2"/>
		</g>
	</g>
	<g>
		<path class="st4" d="M10.2,9.9c-0.3,0-0.6,0-1-0.1C8.3,9.5,7.5,9,7,8.4l0.6,0C8,8.8,8.6,9.2,9.3,9.3c0.3,0.1,0.6,0.1,0.9,0.1
			c0.2,0,0.5,0,0.7-0.1c0.3-0.1,0.5-0.1,0.8-0.2c0.9-0.4,1.6-1.1,2-2.1s0.3-1.9-0.1-2.9C13.1,2.9,11.7,2,10.2,2
			c-0.5,0-1,0.1-1.5,0.3C6.9,3.1,6.1,5.2,6.8,7.1c-0.1,0-0.3,0-0.4,0C6,6.1,6,5,6.4,4.1c0.4-1,1.2-1.7,2.2-2.1
			c0.5-0.2,1.1-0.3,1.7-0.3c1.7,0,3.2,1,3.8,2.5c0.9,2.1,0,4.6-2.2,5.5c-0.3,0.1-0.6,0.2-1,0.3C10.7,9.9,10.5,9.9,10.2,9.9
			C10.2,9.9,10.2,9.9,10.2,9.9z"/>
		<g>
			<path class="st5" d="M10.2,1.7c1.6,0,3.1,1,3.7,2.4c0.9,2,0,4.4-2.1,5.3c-0.3,0.1-0.6,0.2-0.9,0.3c-0.2,0-0.5,0.1-0.7,0.1
				c-0.3,0-0.6,0-0.9-0.1C8.4,9.5,7.5,8.9,7,8.4l0.3,0c0.5,0.4,1.3,0.9,1.9,1.1c0.3,0.1,0.6,0.1,1,0.1c0.2,0,0.5,0,0.7-0.1
				c0.3-0.1,0.6-0.1,0.8-0.3c1.9-0.8,2.8-3.1,2-5.1c-0.6-1.4-2-2.3-3.5-2.3c-0.5,0-1,0.1-1.5,0.3C6.8,3,6,5.1,6.7,7.1
				c-0.1,0-0.3,0-0.3,0C6,5.8,6.1,5,6.5,4.1C6.9,3.2,7.7,2.4,8.6,2C9.1,1.8,9.7,1.7,10.2,1.7 M10.2,1.4c-0.6,0-1.1,0.1-1.7,0.4
				C6.5,2.7,5.5,5,6.2,7.1c0.2,0,0.5,0,0.7,0C6.1,5.3,7,3.2,8.8,2.4c0.5-0.2,1-0.3,1.4-0.3c1.4,0,2.7,0.8,3.3,2.2
				c0.8,1.8,0,4-1.9,4.8c-0.3,0.1-0.5,0.2-0.8,0.2c-0.2,0-0.4,0.1-0.7,0.1c-0.3,0-0.6,0-0.9-0.1C8.7,9.1,8.1,8.8,7.7,8.4l-0.9,0
				c0.6,0.8,1.5,1.3,2.4,1.5c0.3,0.1,0.7,0.1,1,0.1c0.2,0,0.5,0,0.7-0.1c0.3-0.1,0.7-0.2,1-0.3c2.2-0.9,3.1-3.5,2.2-5.6
				C13.4,2.4,11.9,1.4,10.2,1.4L10.2,1.4z"/>
		</g>
	</g>
</g>
</svg>
